<svg xmlns="http://www.w3.org/2000/svg" viewBox="0 0 512 512" role="img" aria-label="จัดการระบบหลังบ้าน CAI">
  <defs>
    <linearGradient id="warm" x1="0" y1="0" x2="1" y2="1">
      <stop offset="0%" stop-color="#F97316"/>
      <stop offset="48%" stop-color="#EC4899"/>
      <stop offset="100%" stop-color="#A855F7"/>
    </linearGradient>
    <!-- The soft top-left sheen the dashboard cards have, so the icon reads as the same surface. -->
    <radialGradient id="sheen" cx="0.28" cy="0.2" r="0.75">
      <stop offset="0%" stop-color="#fff" stop-opacity="0.34"/>
      <stop offset="60%" stop-color="#fff" stop-opacity="0.05"/>
      <stop offset="100%" stop-color="#fff" stop-opacity="0"/>
    </radialGradient>
  </defs>
  <rect width="512" height="512" rx="116" fill="url(#warm)"/>
  <rect width="512" height="512" rx="116" fill="url(#sheen)"/>
  <g transform="translate(139.5,136) scale(10)" fill="#fff">
    <path d="M22.7 19l-9.1-9.1c.9-2.3.4-5-1.5-6.9-2-2-5-2.4-7.4-1.3L9 6 6 9 1.6 4.7C.4 7.1.9 10.1 2.9 12.1c1.9 1.9 4.6 2.4 6.9 1.5l9.1 9.1c.4.4 1 .4 1.4 0l2.3-2.3c.5-.4.5-1.1.1-1.4z"/>
  </g>
  <path d="M395 112l7.6 20.4L423 140l-20.4 7.6L395 168l-7.6-20.4L367 140l20.4-7.6L395 112Z" fill="#fff" fill-opacity="0.92"/>
</svg>
